<?xml version="1.0" encoding="utf-8"?>
<!-- Generator: Adobe Illustrator 16.0.4, SVG Export Plug-In . SVG Version: 6.00 Build 0)  -->
<!DOCTYPE svg PUBLIC "-//W3C//DTD SVG 1.1//EN" "http://www.w3.org/Graphics/SVG/1.1/DTD/svg11.dtd">
<svg version="1.1" id="Layer_1" xmlns="http://www.w3.org/2000/svg" xmlns:xlink="http://www.w3.org/1999/xlink" x="0px" y="0px"
	 width="17.324px" height="17.325px" viewBox="0 0 17.324 17.325" enable-background="new 0 0 17.324 17.325" xml:space="preserve">
<g>
	<circle fill="#3BAA5C" cx="8.737" cy="8.737" r="8.587"/>
</g>
<path fill="#FFFFFF" d="M2.944,9.164c0-0.197,0.069-0.365,0.207-0.504l1.003-1.003c0.137-0.137,0.305-0.205,0.501-0.205
	S5.02,7.521,5.157,7.657l2.17,2.177l4.84-4.848c0.138-0.137,0.305-0.206,0.502-0.206s0.364,0.069,0.501,0.206l1.005,1.004
	c0.137,0.137,0.205,0.305,0.205,0.501c0,0.197-0.068,0.365-0.205,0.501l-5.344,5.343L7.829,13.34
	c-0.138,0.137-0.306,0.206-0.501,0.206c-0.197,0-0.365-0.069-0.502-0.206l-1.005-1.004l-2.67-2.671
	C3.013,9.527,2.944,9.359,2.944,9.164z"/>
</svg>
