<?xml version="1.0" encoding="utf-8"?>
<!-- Generator: Adobe Illustrator 16.0.4, SVG Export Plug-In . SVG Version: 6.00 Build 0)  -->
<!DOCTYPE svg PUBLIC "-//W3C//DTD SVG 1.1//EN" "http://www.w3.org/Graphics/SVG/1.1/DTD/svg11.dtd">
<svg version="1.1" id="Layer_1" xmlns="http://www.w3.org/2000/svg" xmlns:xlink="http://www.w3.org/1999/xlink" x="0px" y="0px"
	 width="17.324px" height="17.325px" viewBox="0 0 17.324 17.325" enable-background="new 0 0 17.324 17.325" xml:space="preserve">
<g>
	<circle fill="#3BAA5C" cx="8.737" cy="8.737" r="8.587"/>
</g>
<g>
	<path fill="#FFFFFF" d="M8.761,10.615l-0.174-0.082l-3.15-1.477L5.292,9.654C5.368,9.78,5.54,10.762,5.43,11.228
		c1.51,0.547,3.332,1.854,3.332,1.854s2.803-1.667,4.195-2.069l-0.361-2.195l-3.66,1.716L8.761,10.615z"/>
	<polygon fill="#FFFFFF" points="4.76,8.169 4.867,8.221 4.901,8.234 4.901,8.234 4.757,8.167 	"/>
	<ellipse fill="#FFFFFF" cx="8.761" cy="7.046" rx="0.516" ry="0.281"/>
	<path fill="#FFFFFF" d="M4.458,12.377c0.086-0.29,0.062,0.261,0.14,0.795c0.093-0.012,0.177-0.04,0.234-0.075
		c0.09-0.059-0.074-0.682,0.195-1.196c0.17-0.325,0.119-0.694,0.04-0.942l-0.232-0.137c-0.02-0.011-0.039-0.022-0.064-0.034
		c-0.073-0.034-0.147-0.052-0.223-0.052c-0.064,0-0.128,0.013-0.192,0.041l-0.289,0.122c-0.328,0.64,0.05,1.517,0.074,2.022
		c0.008,0.16,0.132,0.233,0.279,0.252C4.402,12.87,4.403,12.555,4.458,12.377z"/>
	<path fill="#FFFFFF" d="M4.757,7.751l0.144,0.067C5.394,7.224,7.352,7.093,7.98,7.066c0-0.008-0.003-0.014-0.003-0.02
		c0-0.341,0.33-0.59,0.784-0.59c0.455,0,0.785,0.249,0.785,0.59c0,0.34-0.33,0.588-0.785,0.588c-0.287,0-0.525-0.101-0.661-0.26
		c-0.467,0.042-2.385,0.232-2.866,0.6l3.527,1.653l5.516-2.586L8.761,4.456L3.245,7.042l1.452,0.681l0,0l0.063,0.03L4.757,7.751z"/>
	<path fill="#FFFFFF" d="M4.547,10.382c0.125,0,0.241,0.032,0.343,0.081c0.028,0.014,0.056,0.028,0.083,0.045l0.048-0.363
		c0.016-0.131-0.084-0.305-0.157-0.394l0.37-1.776L4.901,7.818L4.527,9.699C4.433,9.76,4.321,9.891,4.302,10.021l-0.055,0.424
		C4.352,10.401,4.452,10.382,4.547,10.382z"/>
</g>
</svg>
