<?xml version="1.0" encoding="utf-8"?>
<!-- Generator: Adobe Illustrator 18.1.1, SVG Export Plug-In . SVG Version: 6.00 Build 0)  -->
<svg version="1.1" id="Layer_1" xmlns="http://www.w3.org/2000/svg" xmlns:xlink="http://www.w3.org/1999/xlink" x="0px" y="0px"
	 viewBox="0 0 7.9 15.1" enable-background="new 0 0 7.9 15.1" xml:space="preserve">
<g>
	<path fill="#D0D1CF" d="M6.3,5C5.9,4.7,5.6,4.5,5.3,4.4S4.8,4.1,4.4,4.1c-0.4,0-0.7,0.1-0.8,0.2C3.4,4.5,3.3,4.7,3.3,5.1
		c0,0.2,0.1,0.4,0.3,0.6C3.9,5.8,4.1,6,4.5,6.1c0.3,0.2,0.7,0.3,1.1,0.5C6,6.8,6.3,7.1,6.7,7.3c0.3,0.3,0.6,0.6,0.8,1
		s0.3,0.8,0.3,1.4c0,0.9-0.2,1.6-0.7,2.2c-0.5,0.6-1.1,1-2.1,1.3V15h-2v-1.8c-0.5-0.1-1-0.2-1.6-0.4C1,12.6,0.4,12.3,0,11.9l1.3-2
		c0.5,0.4,0.9,0.6,1.3,0.8c0.4,0.2,0.8,0.2,1.1,0.2c0.4,0,0.8-0.1,0.9-0.2C4.9,10.5,5,10.2,5,9.9c0-0.2-0.1-0.4-0.3-0.6
		C4.4,9.1,4.1,8.9,3.8,8.7C3.4,8.5,3.1,8.4,2.7,8.2C2.3,8,1.9,7.7,1.6,7.5S1,6.9,0.8,6.5C0.5,6.2,0.4,5.7,0.4,5.2
		c0-0.9,0.2-1.6,0.7-2.2c0.5-0.6,1.1-1,2-1.2V0h2v1.8c0.6,0.1,1.1,0.3,1.5,0.5C7,2.6,7.4,2.9,7.7,3.3L6.3,5z"/>
</g>
</svg>
