<?xml version="1.0" encoding="utf-8"?>
<!-- Generator: Adobe Illustrator 18.1.1, SVG Export Plug-In . SVG Version: 6.00 Build 0)  -->
<svg version="1.1" id="Layer_1" xmlns="http://www.w3.org/2000/svg" xmlns:xlink="http://www.w3.org/1999/xlink" x="0px" y="0px"
	 viewBox="0 0 14 17.7" enable-background="new 0 0 14 17.7" xml:space="preserve">
<g>
	<g>
		<path fill="#F9F9F9" d="M8.1,0.2H0.6c-0.2,0-0.4,0.2-0.4,0.4v16.6c0,0.2,0.2,0.4,0.4,0.4h12.9c0.2,0,0.4-0.2,0.4-0.4V5L8.1,0.2z"
			/>
	</g>
	<path fill="#D6D5D4" d="M13.9,4.9L8.2,0c0,0-0.1,0-0.1,0H0.6C0.3,0,0,0.3,0,0.6v16.6c0,0.3,0.3,0.6,0.6,0.6h12.9
		c0.3,0,0.6-0.3,0.6-0.6V5C14,5,14,4.9,13.9,4.9z M13.4,17.3H0.6c-0.1,0-0.2-0.1-0.2-0.2V0.6c0-0.1,0.1-0.2,0.2-0.2h7.4v4.3
		c0,0.3,0.3,0.6,0.6,0.6h5.1v12C13.6,17.3,13.5,17.3,13.4,17.3z"/>
	<g>
		<g>
			<path fill="#BAB9B9" d="M2.7,8.1H4c0.2,0,0.4,0,0.5,0.1c0.2,0,0.3,0.1,0.4,0.2C5,8.4,5.1,8.5,5.2,8.7C5.3,8.8,5.3,9,5.3,9.2
				c0,0.2,0,0.4-0.1,0.5C5.1,9.8,5,10,4.9,10.1c-0.1,0.1-0.3,0.2-0.4,0.2c-0.2,0-0.3,0.1-0.5,0.1H3.5v1.2H2.7V8.1z M3.9,9.7
				c0.4,0,0.6-0.2,0.6-0.5c0-0.2-0.1-0.3-0.2-0.4C4.3,8.7,4.1,8.7,3.9,8.7H3.5v1H3.9z"/>
			<path fill="#BAB9B9" d="M5.8,8.1h1c0.3,0,0.5,0,0.7,0.1C7.7,8.2,7.9,8.3,8,8.5C8.2,8.6,8.3,8.8,8.4,9c0.1,0.2,0.1,0.5,0.1,0.8
				c0,0.3,0,0.5-0.1,0.8c-0.1,0.2-0.2,0.4-0.3,0.5c-0.1,0.1-0.3,0.2-0.5,0.3c-0.2,0.1-0.4,0.1-0.7,0.1h-1V8.1z M6.7,10.9
				c0.1,0,0.3,0,0.4-0.1c0.1,0,0.2-0.1,0.3-0.2c0.1-0.1,0.1-0.2,0.2-0.3c0-0.1,0.1-0.3,0.1-0.5c0-0.2,0-0.4-0.1-0.5
				c0-0.1-0.1-0.2-0.2-0.3C7.4,8.8,7.3,8.8,7.1,8.8C7,8.7,6.9,8.7,6.7,8.7H6.6v2.2H6.7z"/>
			<path fill="#BAB9B9" d="M9.1,8.1h2.1v0.6H9.9v0.8h1.2v0.6H9.9v1.3H9.1V8.1z"/>
		</g>
	</g>
</g>
</svg>
